<mxfile host="app.diagrams.net" agent="Mozilla/5.0 (Macintosh; Intel Mac OS X 10_15_7) AppleWebKit/537.36 (KHTML, like Gecko) Chrome/136.0.0.0 Safari/537.36 Edg/136.0.0.0" version="27.0.5">
  <diagram name="第 1 页" id="0mTKsxX9PbOFyu_5A75J">
    <mxGraphModel dx="943" dy="574" grid="1" gridSize="10" guides="1" tooltips="1" connect="1" arrows="1" fold="1" page="1" pageScale="1" pageWidth="827" pageHeight="1169" math="0" shadow="0">
      <root>
        <mxCell id="0" />
        <mxCell id="1" parent="0" />
        <mxCell id="WFHXpH6FS68AbzfJyHoK-8" value="" style="edgeStyle=orthogonalEdgeStyle;rounded=0;orthogonalLoop=1;jettySize=auto;html=1;" edge="1" parent="1" source="WFHXpH6FS68AbzfJyHoK-1" target="WFHXpH6FS68AbzfJyHoK-2">
          <mxGeometry relative="1" as="geometry" />
        </mxCell>
        <mxCell id="WFHXpH6FS68AbzfJyHoK-1" value="输入聚类数 k 和数据集 D" style="rounded=0;whiteSpace=wrap;html=1;fillColor=#d5e8d4;strokeColor=#82b366;" vertex="1" parent="1">
          <mxGeometry x="240" y="180" width="120" height="60" as="geometry" />
        </mxCell>
        <mxCell id="WFHXpH6FS68AbzfJyHoK-9" value="" style="edgeStyle=orthogonalEdgeStyle;rounded=0;orthogonalLoop=1;jettySize=auto;html=1;" edge="1" parent="1" source="WFHXpH6FS68AbzfJyHoK-2" target="WFHXpH6FS68AbzfJyHoK-4">
          <mxGeometry relative="1" as="geometry" />
        </mxCell>
        <mxCell id="WFHXpH6FS68AbzfJyHoK-2" value="随机选取 k 个数据为聚类中心" style="rounded=0;whiteSpace=wrap;html=1;fillColor=#dae8fc;strokeColor=#6c8ebf;" vertex="1" parent="1">
          <mxGeometry x="240" y="280" width="120" height="60" as="geometry" />
        </mxCell>
        <mxCell id="WFHXpH6FS68AbzfJyHoK-12" value="" style="edgeStyle=orthogonalEdgeStyle;rounded=0;orthogonalLoop=1;jettySize=auto;html=1;" edge="1" parent="1" source="WFHXpH6FS68AbzfJyHoK-3" target="WFHXpH6FS68AbzfJyHoK-5">
          <mxGeometry relative="1" as="geometry" />
        </mxCell>
        <mxCell id="WFHXpH6FS68AbzfJyHoK-3" value="计算心的类簇质心" style="rounded=0;whiteSpace=wrap;html=1;fillColor=#dae8fc;strokeColor=#6c8ebf;" vertex="1" parent="1">
          <mxGeometry x="460" y="380" width="120" height="60" as="geometry" />
        </mxCell>
        <mxCell id="WFHXpH6FS68AbzfJyHoK-10" value="" style="edgeStyle=orthogonalEdgeStyle;rounded=0;orthogonalLoop=1;jettySize=auto;html=1;" edge="1" parent="1" source="WFHXpH6FS68AbzfJyHoK-4" target="WFHXpH6FS68AbzfJyHoK-3">
          <mxGeometry relative="1" as="geometry" />
        </mxCell>
        <mxCell id="WFHXpH6FS68AbzfJyHoK-4" value="待分配对象是否为空对象" style="rhombus;whiteSpace=wrap;html=1;fillColor=#fff2cc;strokeColor=#d6b656;" vertex="1" parent="1">
          <mxGeometry x="230" y="370" width="140" height="80" as="geometry" />
        </mxCell>
        <mxCell id="WFHXpH6FS68AbzfJyHoK-13" value="" style="edgeStyle=orthogonalEdgeStyle;rounded=0;orthogonalLoop=1;jettySize=auto;html=1;" edge="1" parent="1" source="WFHXpH6FS68AbzfJyHoK-5" target="WFHXpH6FS68AbzfJyHoK-6">
          <mxGeometry relative="1" as="geometry" />
        </mxCell>
        <mxCell id="WFHXpH6FS68AbzfJyHoK-5" value="&amp;nbsp;k 个质心变化是否低于阈值" style="rhombus;whiteSpace=wrap;html=1;fillColor=#fff2cc;strokeColor=#d6b656;" vertex="1" parent="1">
          <mxGeometry x="445" y="540" width="150" height="90" as="geometry" />
        </mxCell>
        <mxCell id="WFHXpH6FS68AbzfJyHoK-14" value="" style="edgeStyle=orthogonalEdgeStyle;rounded=0;orthogonalLoop=1;jettySize=auto;html=1;" edge="1" parent="1" source="WFHXpH6FS68AbzfJyHoK-6" target="WFHXpH6FS68AbzfJyHoK-7">
          <mxGeometry relative="1" as="geometry" />
        </mxCell>
        <mxCell id="WFHXpH6FS68AbzfJyHoK-6" value="选择一个待分配的对象" style="rounded=0;whiteSpace=wrap;html=1;fillColor=#dae8fc;strokeColor=#6c8ebf;" vertex="1" parent="1">
          <mxGeometry x="235" y="555" width="130" height="60" as="geometry" />
        </mxCell>
        <mxCell id="WFHXpH6FS68AbzfJyHoK-7" value="根据最小距离分配到最近簇" style="rounded=0;whiteSpace=wrap;html=1;fillColor=#f8cecc;strokeColor=#b85450;" vertex="1" parent="1">
          <mxGeometry x="235" y="470" width="130" height="60" as="geometry" />
        </mxCell>
        <mxCell id="WFHXpH6FS68AbzfJyHoK-16" value="" style="edgeStyle=orthogonalEdgeStyle;rounded=0;orthogonalLoop=1;jettySize=auto;html=1;entryX=0.5;entryY=1;entryDx=0;entryDy=0;" edge="1" parent="1" target="WFHXpH6FS68AbzfJyHoK-4">
          <mxGeometry relative="1" as="geometry">
            <mxPoint x="300" y="470" as="sourcePoint" />
            <mxPoint x="310" y="540" as="targetPoint" />
          </mxGeometry>
        </mxCell>
        <mxCell id="WFHXpH6FS68AbzfJyHoK-17" value="" style="edgeStyle=orthogonalEdgeStyle;rounded=0;orthogonalLoop=1;jettySize=auto;html=1;" edge="1" parent="1" source="WFHXpH6FS68AbzfJyHoK-18" target="WFHXpH6FS68AbzfJyHoK-20">
          <mxGeometry relative="1" as="geometry" />
        </mxCell>
        <mxCell id="WFHXpH6FS68AbzfJyHoK-18" value="输入聚类数 k 和数据集 D" style="rounded=0;whiteSpace=wrap;html=1;fillColor=#d5e8d4;strokeColor=#82b366;" vertex="1" parent="1">
          <mxGeometry x="720" y="180" width="120" height="60" as="geometry" />
        </mxCell>
        <mxCell id="WFHXpH6FS68AbzfJyHoK-19" value="" style="edgeStyle=orthogonalEdgeStyle;rounded=0;orthogonalLoop=1;jettySize=auto;html=1;" edge="1" parent="1" source="WFHXpH6FS68AbzfJyHoK-20" target="WFHXpH6FS68AbzfJyHoK-24">
          <mxGeometry relative="1" as="geometry" />
        </mxCell>
        <mxCell id="WFHXpH6FS68AbzfJyHoK-20" value="随机选取 k 个数据为聚类中心" style="rounded=0;whiteSpace=wrap;html=1;fillColor=#dae8fc;strokeColor=#6c8ebf;" vertex="1" parent="1">
          <mxGeometry x="720" y="280" width="120" height="60" as="geometry" />
        </mxCell>
        <mxCell id="WFHXpH6FS68AbzfJyHoK-21" value="" style="edgeStyle=orthogonalEdgeStyle;rounded=0;orthogonalLoop=1;jettySize=auto;html=1;" edge="1" parent="1" source="WFHXpH6FS68AbzfJyHoK-22" target="WFHXpH6FS68AbzfJyHoK-26">
          <mxGeometry relative="1" as="geometry" />
        </mxCell>
        <mxCell id="WFHXpH6FS68AbzfJyHoK-22" value="计算心的类簇质心" style="rounded=0;whiteSpace=wrap;html=1;fillColor=#dae8fc;strokeColor=#6c8ebf;" vertex="1" parent="1">
          <mxGeometry x="940" y="380" width="120" height="60" as="geometry" />
        </mxCell>
        <mxCell id="WFHXpH6FS68AbzfJyHoK-23" value="" style="edgeStyle=orthogonalEdgeStyle;rounded=0;orthogonalLoop=1;jettySize=auto;html=1;" edge="1" parent="1" source="WFHXpH6FS68AbzfJyHoK-24" target="WFHXpH6FS68AbzfJyHoK-22">
          <mxGeometry relative="1" as="geometry" />
        </mxCell>
        <mxCell id="WFHXpH6FS68AbzfJyHoK-24" value="待分配对象是否为空对象" style="rhombus;whiteSpace=wrap;html=1;fillColor=#fff2cc;strokeColor=#d6b656;" vertex="1" parent="1">
          <mxGeometry x="710" y="370" width="140" height="80" as="geometry" />
        </mxCell>
        <mxCell id="WFHXpH6FS68AbzfJyHoK-25" value="" style="edgeStyle=orthogonalEdgeStyle;rounded=0;orthogonalLoop=1;jettySize=auto;html=1;" edge="1" parent="1" source="WFHXpH6FS68AbzfJyHoK-26" target="WFHXpH6FS68AbzfJyHoK-28">
          <mxGeometry relative="1" as="geometry" />
        </mxCell>
        <mxCell id="WFHXpH6FS68AbzfJyHoK-26" value="&amp;nbsp;k 个质心变化是否低于阈值" style="rhombus;whiteSpace=wrap;html=1;fillColor=#fff2cc;strokeColor=#d6b656;" vertex="1" parent="1">
          <mxGeometry x="925" y="540" width="150" height="90" as="geometry" />
        </mxCell>
        <mxCell id="WFHXpH6FS68AbzfJyHoK-27" value="" style="edgeStyle=orthogonalEdgeStyle;rounded=0;orthogonalLoop=1;jettySize=auto;html=1;" edge="1" parent="1" source="WFHXpH6FS68AbzfJyHoK-28" target="WFHXpH6FS68AbzfJyHoK-29">
          <mxGeometry relative="1" as="geometry" />
        </mxCell>
        <mxCell id="WFHXpH6FS68AbzfJyHoK-28" value="选择一个待分配的对象" style="rounded=0;whiteSpace=wrap;html=1;fillColor=#dae8fc;strokeColor=#6c8ebf;" vertex="1" parent="1">
          <mxGeometry x="715" y="555" width="130" height="60" as="geometry" />
        </mxCell>
        <mxCell id="WFHXpH6FS68AbzfJyHoK-29" value="根据最小距离分配到最近簇" style="rounded=0;whiteSpace=wrap;html=1;fillColor=#f8cecc;strokeColor=#b85450;" vertex="1" parent="1">
          <mxGeometry x="715" y="470" width="130" height="60" as="geometry" />
        </mxCell>
        <mxCell id="WFHXpH6FS68AbzfJyHoK-30" value="" style="edgeStyle=orthogonalEdgeStyle;rounded=0;orthogonalLoop=1;jettySize=auto;html=1;entryX=0.5;entryY=1;entryDx=0;entryDy=0;" edge="1" parent="1" target="WFHXpH6FS68AbzfJyHoK-24">
          <mxGeometry relative="1" as="geometry">
            <mxPoint x="780" y="470" as="sourcePoint" />
            <mxPoint x="790" y="540" as="targetPoint" />
          </mxGeometry>
        </mxCell>
      </root>
    </mxGraphModel>
  </diagram>
</mxfile>
